<?xml version="1.0" encoding="iso-8859-1"?>
<!-- Generator: Adobe Illustrator 18.0.0, SVG Export Plug-In . SVG Version: 6.00 Build 0)  -->
<!DOCTYPE svg PUBLIC "-//W3C//DTD SVG 1.1//EN" "http://www.w3.org/Graphics/SVG/1.1/DTD/svg11.dtd">
<svg version="1.1" id="Capa_1" xmlns="http://www.w3.org/2000/svg" xmlns:xlink="http://www.w3.org/1999/xlink" x="0px" y="0px"
	 viewBox="0 0 236.25 236.25" style="enable-background:new 0 0 236.25 236.25;" xml:space="preserve">
<path d="M158.239,46.75h-20.5v20.5H98.636v-35l-3.188-8.146V0h-14.25v24.062l-3.188,8.188v35H62.625v169h111v-169h-15.386V46.75z
	 M118.125,214.25c-9.211,0-17.573-3.617-23.761-9.5h47.521C135.698,210.633,127.336,214.25,118.125,214.25z M149.201,194.75H87.049
	c-1.5-3.102-2.545-6.465-3.059-10h68.27C151.747,188.285,150.701,191.648,149.201,194.75z M83.99,174.75
	c0.513-3.535,1.559-6.898,3.059-10h62.152c1.5,3.102,2.545,6.465,3.059,10H83.99z M94.364,154.75c6.188-5.883,14.549-9.5,23.761-9.5
	c9.211,0,17.573,3.617,23.761,9.5H94.364z M154.875,127.5h-73.5v-38h73.5V127.5z"/>
<g>
</g>
<g>
</g>
<g>
</g>
<g>
</g>
<g>
</g>
<g>
</g>
<g>
</g>
<g>
</g>
<g>
</g>
<g>
</g>
<g>
</g>
<g>
</g>
<g>
</g>
<g>
</g>
<g>
</g>
</svg>
