<?xml version="1.0" encoding="iso-8859-1"?>
<!-- Generator: Adobe Illustrator 19.0.0, SVG Export Plug-In . SVG Version: 6.00 Build 0)  -->
<svg version="1.1" id="Layer_1" xmlns="http://www.w3.org/2000/svg" xmlns:xlink="http://www.w3.org/1999/xlink" x="0px" y="0px"
	 viewBox="0 0 512 512" style="enable-background:new 0 0 512 512;" xml:space="preserve">
<g>
	<g>
		<rect x="13.913" y="253.217" width="44.522" height="33.391"/>
	</g>
</g>
<g>
	<g>
		<rect x="453.565" y="253.217" width="44.522" height="33.391"/>
	</g>
</g>
<g>
	<g>
		
			<rect x="78.298" y="408.663" transform="matrix(0.7071 -0.7071 0.7071 0.7071 -271.3212 195.6901)" width="44.521" height="33.391"/>
	</g>
</g>
<g>
	<g>
		
			<rect x="389.182" y="97.776" transform="matrix(0.7071 -0.7071 0.7071 0.7071 39.5654 324.4619)" width="44.521" height="33.391"/>
	</g>
</g>
<g>
	<g>
		<rect x="83.867" y="92.203" transform="matrix(0.7071 -0.7071 0.7071 0.7071 -51.484 104.6335)" width="33.391" height="44.521"/>
	</g>
</g>
<g>
	<g>
		
			<rect x="394.738" y="403.088" transform="matrix(0.7071 -0.7071 0.7071 0.7071 -180.2604 415.5101)" width="33.391" height="44.521"/>
	</g>
</g>
<g>
	<g>
		<rect x="239.304" y="467.478" width="33.391" height="44.522"/>
	</g>
</g>
<g>
	<g>
		<path d="M200.348,0v33.391h38.957v39.666c5.505-0.461,11.071-0.709,16.696-0.709s11.191,0.248,16.696,0.709V33.391h38.956V0
			H200.348z"/>
	</g>
</g>
<g>
	<g>
		<path d="M297.786,226.318h-83.573c-1.191,14.045-1.808,28.663-1.808,43.595c0,14.932,0.617,29.549,1.808,43.595h83.573
			c1.191-14.045,1.808-28.663,1.808-43.595C299.593,254.982,298.977,240.364,297.786,226.318z"/>
	</g>
</g>
<g>
	<g>
		<path d="M218.311,346.899c2.741,16.728,6.398,32.132,10.897,45.628c10.163,30.493,21.591,41.56,26.792,41.56
			s16.629-11.067,26.792-41.56c4.499-13.496,8.155-28.9,10.897-45.628H218.311z"/>
	</g>
</g>
<g>
	<g>
		<path d="M304.983,113.172c3.294,6.756,6.48,14.544,9.488,23.568c5.521,16.562,9.892,35.581,12.999,56.188h73.56
			C380.928,155.139,346.5,126.133,304.983,113.172z"/>
	</g>
</g>
<g>
	<g>
		<path d="M413.459,316.496c4.362-14.769,6.715-30.401,6.715-46.583s-2.353-31.814-6.715-46.583v2.988h-82.183
			c1.126,14.138,1.71,28.742,1.71,43.595c0,14.852-0.583,29.457-1.71,43.595h82.183v0V316.496z"/>
	</g>
</g>
<g>
	<g>
		<path d="M282.792,147.299c-10.163-30.493-21.591-41.56-26.792-41.56s-16.629,11.067-26.792,41.56
			c-4.499,13.496-8.155,28.9-10.897,45.628h75.378C290.947,176.199,287.291,160.795,282.792,147.299z"/>
	</g>
</g>
<g>
	<g>
		<path d="M327.468,346.898v0.001c-3.108,20.608-7.479,39.627-12.999,56.188c-3.007,9.022-6.193,16.811-9.489,23.566
			c41.518-12.961,75.946-41.967,96.047-79.755H327.468z"/>
	</g>
</g>
<g>
	<g>
		<path d="M197.53,403.086c-5.521-16.562-9.892-35.581-12.999-56.188h-73.559c20.102,37.788,54.529,66.794,96.047,79.755
			C203.724,419.898,200.537,412.11,197.53,403.086z"/>
	</g>
</g>
<g>
	<g>
		<path d="M110.973,192.928h73.559v-0.001c3.108-20.608,7.479-39.627,12.999-56.188c3.007-9.022,6.193-16.811,9.489-23.566
			C165.502,126.135,131.073,155.14,110.973,192.928z"/>
	</g>
</g>
<g>
	<g>
		<path d="M180.724,226.318H97.688c-3.814,13.884-5.862,28.499-5.862,43.595c0,15.095,2.048,29.711,5.862,43.595h83.035
			c-1.126-14.138-1.71-28.742-1.71-43.595C179.014,255.061,179.597,240.456,180.724,226.318z"/>
	</g>
</g>
<g>
</g>
<g>
</g>
<g>
</g>
<g>
</g>
<g>
</g>
<g>
</g>
<g>
</g>
<g>
</g>
<g>
</g>
<g>
</g>
<g>
</g>
<g>
</g>
<g>
</g>
<g>
</g>
<g>
</g>
</svg>
